#!OML:ASF X:\für Bonn\!DataBase\2005_08_10_Bjorn_Final\c3d\bjorn.ASF
:FULLY-SPECIFIED
:DEGREES
141
root 0.941152 19.6418 3.19755 -200.064 -31.9576 -166.375
lowerback 10.9684 -7.52717 -0.754088
upperback 15.1159 -12.8204 1.23843
thorax 10.8843 -7.58381 1.67765
lowerneck -4.71368 -4.17579 -0.0205833
upperneck 14.3936 -8.53766 11.3768
head 5.62606 -3.88447 2.9692
rclavicle 3.69739e-014 -5.24792e-014
rhumerus -38.14 -9.06792 -76.0163
rradius 34.8575
rwrist 13.3246
rhand -5.53325 10.0455
rfingers 7.12502
rthumb 20.281 -18.9156
lclavicle 3.69739e-014 -5.24792e-014
lhumerus 19.7365 -19.7617 80.7456
lradius 105.076
lwrist -0.980365
lhand -41.6454 -22.6018
lfingers 7.12502
lthumb -14.5536 6.86766
rfemur -51.9248 -8.07887 18.0572
rtibia 100.203
rfoot 1.29103 4.3235
rtoes -29.0261
lfemur 10.659 -6.27006 -10.0715
ltibia 12.41
lfoot -4.08452 -8.90685
ltoes 1.22691
142
root 0.908341 19.6396 3.17079 -199.055 -31.6323 -166.824
lowerback 9.83172 -7.6732 -0.567139
upperback 14.5712 -12.8155 1.31303
thorax 10.84 -7.46618 1.53548
lowerneck -4.98063 -4.05996 0.0251694
upperneck 15.0881 -8.3201 10.5202
head 5.83615 -3.78422 2.69948
rclavicle 2.74323e-014 -1.98785e-014
rhumerus -38.5971 -9.07161 -75.8146
rradius 35.2239
rwrist 12.871
rhand -5.28861 10.025
rfingers 7.12502
rthumb 20.5161 -18.911
lclavicle 2.74323e-014 -1.98785e-014
lhumerus 17.5824 -20.331 80.3052
lradius 103.256
lwrist 0.305539
lhand -41.1856 -23.0781
lfingers 7.12502
lthumb -14.1105 6.42279
rfemur -50.3472 -8.17179 18.0381
rtibia 98.2312
rfoot 1.41169 3.82982
rtoes -29.1424
lfemur 10.0732 -5.52696 -10.2142
ltibia 12.3669
lfoot -4.08033 -9.23999
ltoes 1.59278
143
root 0.876319 19.6361 3.14226 -198.024 -31.2513 -167.309
lowerback 8.69129 -7.77672 -0.428757
upperback 14.0154 -12.7684 1.4146
thorax 10.8099 -7.33862 1.44497
lowerneck -5.12757 -3.94323 -0.0224513
upperneck 15.691 -8.08355 9.73278
head 6.00441 -3.68964 2.4714
rclavicle -4.77083e-014 5.88403e-014
rhumerus -39.031 -9.09082 -75.5616
rradius 35.5839
rwrist 12.479
rhand -5.04611 9.94959
rfingers 7.12502
rthumb 20.7491 -18.9611
lclavicle -4.77083e-014 5.88403e-014
lhumerus 15.5745 -21.0197 79.9156
lradius 101.267
lwrist 1.67532
lhand -40.7374 -23.6323
lfingers 7.12502
lthumb -13.6785 5.89824
rfemur -48.7767 -8.18082 18.0021
rtibia 96.2225
rfoot 1.53127 3.28507
rtoes -28.8124
lfemur 9.1532 -4.70518 -10.3789
ltibia 13.0134
lfoot -4.44652 -9.64091
ltoes 1.94292
144
root 0.846136 19.6307 3.1108 -197.011 -30.8012 -167.802
lowerback 7.5563 -7.84002 -0.279325
upperback 13.4748 -12.6822 1.50981
thorax 10.7977 -7.19616 1.34141
lowerneck -5.20638 -3.833 -0.088893
upperneck 16.2368 -7.84505 8.96252
head 6.14656 -3.60407 2.25344
rclavicle -3.49861e-014 2.14687e-014
rhumerus -39.4517 -9.15323 -75.3141
rradius 35.9273
rwrist 12.1775
rhand -4.76888 9.85852
rfingers 7.12502
rthumb 21.0155 -19.0228
lclavicle -3.49861e-014 2.14687e-014
lhumerus 13.709 -21.8219 79.5052
lradius 99.1531
lwrist 3.01118
lhand -40.2688 -24.1302
lfingers 7.12502
lthumb -13.2268 5.4302
rfemur -47.1927 -8.15113 17.9957
rtibia 94.1544
rfoot 1.60795 2.68435
rtoes -28.3564
lfemur 8.20754 -3.90287 -10.56
ltibia 13.7808
lfoot -4.86156 -9.98257
ltoes 2.38969
145
root 0.817405 19.6211 3.07682 -196.03 -30.2947 -168.266
lowerback 6.41418 -7.87209 -0.13356
upperback 12.9624 -12.58 1.63918
thorax 10.8413 -7.0561 1.26981
lowerneck -5.32354 -3.71383 -0.210993
upperneck 16.777 -7.59003 8.22668
head 6.29851 -3.51516 2.0552
rclavicle -1.30403e-013 5.48646e-014
rhumerus -39.7829 -9.19671 -75.0551
rradius 36.2491
rwrist 11.9064
rhand -4.51344 9.70004
rfingers 7.12502
rthumb 21.2608 -19.1539
lclavicle -1.30403e-013 5.48646e-014
lhumerus 11.9407 -22.7609 79.0207
lradius 96.9926
lwrist 4.33196
lhand -39.9417 -24.6195
lfingers 7.12502
lthumb -12.9116 4.96103
rfemur -45.569 -8.10009 18.0421
rtibia 92.0049
rfoot 1.63471 2.0743
rtoes -28.0266
lfemur 7.24646 -2.98758 -10.6895
ltibia 14.628
lfoot -5.31118 -10.4216
ltoes 2.7696
146
root 0.792729 19.6079 3.03996 -195.057 -29.7377 -168.74
lowerback 5.2818 -7.86065 6.17305e-005
upperback 12.4544 -12.426 1.74894
thorax 10.8867 -6.89377 1.18925
lowerneck -5.39128 -3.58785 -0.244971
upperneck 17.2624 -7.32768 7.48704
head 6.4238 -3.42681 1.84264
rclavicle 3.10104e-014 -1.90833e-014
rhumerus -40.0879 -9.39406 -74.7863
rradius 36.4747
rwrist 11.7994
rhand -4.21344 9.58166
rfingers 7.12502
rthumb 21.549 -19.2395
lclavicle 3.10104e-014 -1.90833e-014
lhumerus 10.1718 -23.929 78.4081
lradius 94.9246
lwrist 5.56167
lhand -39.686 -24.8606
lfingers 7.12502
lthumb -12.6651 4.73539
rfemur -43.9418 -8.04362 18.1162
rtibia 89.8139
rfoot 1.53554 1.55451
rtoes -28.3668
lfemur 6.24325 -1.9865 -10.8121
ltibia 15.5869
lfoot -5.80851 -10.9108
ltoes 3.15451
147
root 0.770483 19.5906 3.00112 -194.1 -29.1287 -169.196
lowerback 4.1774 -7.83254 0.127836
upperback 11.9377 -12.2622 1.88742
thorax 10.9214 -6.73404 1.14981
lowerneck -5.48235 -3.45205 -0.332834
upperneck 17.7742 -7.04251 6.72833
head 6.5641 -3.3355 1.63321
rclavicle 2.36554e-014 -1.74931e-014
rhumerus -40.34 -9.46428 -74.5211
rradius 36.6182
rwrist 11.6855
rhand -4.03798 9.48126
rfingers 7.12502
rthumb 21.7175 -19.3205
lclavicle 2.36554e-014 -1.74931e-014
lhumerus 8.38431 -25.2329 77.8194
lradius 92.8893
lwrist 6.64785
lhand -39.5337 -24.9734
lfingers 7.12502
lthumb -12.5183 4.63163
rfemur -42.3251 -7.99534 18.2261
rtibia 87.589
rfoot 1.40183 1.14686
rtoes -29.0438
lfemur 5.19495 -0.914968 -10.9073
ltibia 16.6536
lfoot -6.3521 -11.4758
ltoes 3.56383
148
root 0.750815 19.5687 2.96183 -193.147 -28.4497 -169.655
lowerback 3.09206 -7.76541 0.262468
upperback 11.4306 -12.0538 2.00579
thorax 10.9537 -6.55477 1.09423
lowerneck -5.57767 -3.3039 -0.357773
upperneck 18.2713 -6.75453 6.00456
head 6.7027 -3.24301 1.42373
rclavicle -7.85199e-014 1.98785e-014
rhumerus -40.5062 -9.67655 -74.2606
rradius 36.6082
rwrist 11.6967
rhand -3.91517 9.38101
rfingers 7.12502
rthumb 21.8354 -19.4071
lclavicle -7.85199e-014 1.98785e-014
lhumerus 6.61908 -26.6374 77.2918
lradius 90.8376
lwrist 7.47338
lhand -39.2783 -24.9272
lfingers 7.12502
lthumb -12.272 4.69271
rfemur -40.7319 -7.9516 18.3579
rtibia 85.3493
rfoot 1.32156 0.839869
rtoes -29.6899
lfemur 4.12363 0.407116 -10.9616
ltibia 17.7645
lfoot -6.85103 -12.2309
ltoes 4.04891
149
root 0.732434 19.5455 2.92193 -192.191 -27.712 -170.106
lowerback 2.02662 -7.68009 0.415861
upperback 10.9089 -11.8261 2.11992
thorax 10.9576 -6.36737 1.03495
lowerneck -5.77834 -3.14208 -0.367794
upperneck 18.8672 -6.45816 5.26261
head 6.89338 -3.14934 1.20234
rclavicle -3.06128e-014 -9.54166e-015
rhumerus -40.5571 -10.0122 -73.9623
rradius 36.3887
rwrist 11.8768
rhand -3.85771 9.39949
rfingers 7.12502
rthumb 21.8906 -19.3822
lclavicle -3.06128e-014 -9.54166e-015
lhumerus 4.82794 -28.0563 76.9685
lradius 88.6728
lwrist 8.03824
lhand -38.9512 -24.8438
lfingers 7.12502
lthumb -11.9566 4.79469
rfemur -39.1626 -7.88865 18.5103
rtibia 83.1067
rfoot 1.21011 0.71715
rtoes -30.3638
lfemur 3.05424 1.8899 -10.994
ltibia 18.8609
lfoot -7.31262 -13.1032
ltoes 4.68097
150
root 0.713677 19.522 2.88272 -191.189 -26.9222 -170.58
lowerback 0.90107 -7.56287 0.568797
upperback 10.4005 -11.5656 2.21946
thorax 11.0138 -6.16507 0.956266
lowerneck -6.04316 -2.982 -0.346764
upperneck 19.46 -6.16175 4.52355
head 7.09727 -3.05659 0.974377
rclavicle -2.16576e-013 7.23576e-014
rhumerus -40.4617 -10.5031 -73.6198
rradius 36.0094
rwrist 12.1738
rhand -3.82678 9.49683
rfingers 7.12502
rthumb 21.9203 -19.2813
lclavicle -2.16576e-013 7.23576e-014
lhumerus 3.05284 -29.4414 76.8781
lradius 86.3827
lwrist 8.20733
lhand -38.5445 -24.6687
lfingers 7.12502
lthumb -11.5644 4.9922
rfemur -37.6714 -7.80613 18.6222
rtibia 80.8686
rfoot 1.11621 0.66897
rtoes -30.8324
lfemur 1.96733 3.55874 -11.0527
ltibia 19.9084
lfoot -7.67497 -14.1276
ltoes 5.37528
151
root 0.69619 19.5014 2.84267 -190.179 -26.0763 -171.065
lowerback -0.194228 -7.42881 0.716961
upperback 9.86677 -11.2819 2.29875
thorax 11.0237 -5.95353 0.874249
lowerneck -6.27699 -2.80359 -0.293479
upperneck 20.0598 -5.85018 3.80141
head 7.30094 -2.96149 0.746955
rclavicle 1.2111e-013 -4.25399e-014
rhumerus -40.3254 -11.056 -73.2945
rradius 35.4716
rwrist 12.59
rhand -3.93221 9.59567
rfingers 7.12502
rthumb 21.8191 -19.1943
lclavicle 1.2111e-013 -4.25399e-014
lhumerus 1.21337 -30.7022 77.0704
lradius 83.9058
lwrist 8.09033
lhand -37.9854 -24.6155
lfingers 7.12502
lthumb -11.0252 5.07496
rfemur -36.2064 -7.67929 18.7245
rtibia 78.6228
rfoot 1.01973 0.671161
rtoes -31.3505
lfemur 0.928557 5.42812 -11.1182
ltibia 20.8686
lfoot -7.96851 -15.2791
ltoes 6.09993
152
root 0.677835 19.4817 2.80256 -189.18 -25.1896 -171.546
lowerback -1.3157 -7.27586 0.90822
upperback 9.36736 -10.9915 2.36191
thorax 11.0825 -5.73897 0.751531
lowerneck -6.53387 -2.62332 -0.319823
upperneck 20.6342 -5.53338 3.16216
head 7.50866 -2.86683 0.558712
rclavicle 7.0817e-014 -3.1408e-014
rhumerus -40.0584 -11.6379 -72.9848
rradius 34.8238
rwrist 13.0752
rhand -4.08776 9.73507
rfingers 7.12502
rthumb 21.6697 -19.0722
lclavicle 7.0817e-014 -3.1408e-014
lhumerus -0.587798 -31.9046 77.3763
lradius 81.3526
lwrist 7.81167
lhand -37.4177 -24.5887
lfingers 7.12502
lthumb -10.4776 5.13018
rfemur -34.7549 -7.5532 18.8047
rtibia 76.3779
rfoot 0.873133 0.681751
rtoes -31.8263
lfemur -0.0557965 7.41365 -11.1982
ltibia 21.7388
lfoot -8.1256 -16.5246
ltoes 6.99323
153
root 0.661185 19.4618 2.7629 -188.158 -24.2716 -172.055
lowerback -2.44263 -7.11053 1.11024
upperback 8.8723 -10.6877 2.37308
thorax 11.1413 -5.51664 0.575564
lowerneck -6.77529 -2.42927 -0.30945
upperneck 21.2213 -5.21638 2.57254
head 7.72196 -2.77253 0.379424
rclavicle 7.42709e-014 -3.4191e-014
rhumerus -39.7687 -12.2809 -72.7299
rradius 34.1385
rwrist 13.6241
rhand -4.24195 9.91183
rfingers 7.12502
rthumb 21.5216 -18.9125
lclavicle 7.42709e-014 -3.4191e-014
lhumerus -2.20349 -33.1276 77.6674
lradius 78.6278
lwrist 7.46011
lhand -36.8807 -24.5251
lfingers 7.12502
lthumb -9.95959 5.21931
rfemur -33.3683 -7.44597 18.8358
rtibia 74.1352
rfoot 0.636895 0.682994
rtoes -32.1031
lfemur -1.02239 9.35683 -11.3745
ltibia 22.5411
lfoot -8.2962 -17.6792
ltoes 7.73601
